<?xml version="1.0" encoding="UTF-8"?>
<svg id="Layer_1" data-name="Layer 1" xmlns="http://www.w3.org/2000/svg" viewBox="0 0 320.79 259.56">
  <defs>
    <style>
      .cls-1 {
        fill: none;
        stroke: #dad5c7;
        stroke-miterlimit: 10;
        stroke-width: 4px;
      }

      .cls-2 {
        fill: #003962;
        stroke-width: 0px;
      }
    </style>
  </defs>
  <g>
    <path class="cls-2" d="m318.59,66.68c.2,2.19.61,7.45-.95,13.7-1.22,4.9-2.85,7.31-4.75,8.81-1.41,1.12-2.81,1.67-3.8,1.96-53.72,16.61-107.44,33.2-161.17,49.81,0-.07,0-.13-.02-.2,3.56-2.6,14.19-11.1,17.75-26.13,3.89-16.36-3.17-29.66-6.65-36.21-10.09-19.01-26.91-26.91-34.2-30.34-15.86-7.45-29.68-7.67-38.95-7.83-8.66-.14-25.66-.23-44.65,8.81-6.99,3.34-15.17,7.25-22.76,15.41,4.78-5.32,11.36-11.86,19.91-18.35,13.03-9.87,24.46-14.92,35.15-19.57,17.86-7.76,32.68-11.69,40.85-13.7C178.7-2.9,232.94,2.75,245.45,4.05c10.71,1.13,32.78,3.91,51.44,18.55,5.2,4.08,12.3,10.11,16.96,20.59,3.31,7.44,3.89,13.87,4.75,23.49Zm-18.01-14.22c.05-.92-.35-1.74-.95-2.45-.91-1.05-2.3-1.8-3.42-2.1-2.18-.59-4.51-.26-6.73-.09-3.47.28-6.97.8-10.21,2.18-1.42.6-2.81,1.4-3.73,2.66-.67.93-1.04,2.07-1.06,3.23,0,.7.12,1.42.47,2.02.79,1.32,2.47,1.74,3.98,1.82,2.79.16,5.58-.43,8.32-1.01,3.52-.74,7.08-1.51,10.36-3.01,1.39-.65,2.89-1.68,2.96-3.25Zm-46.22,10.55c.85-1.22.59-3-.29-4.2s-2.27-1.9-3.67-2.32c-1.91-.59-3.9-.74-5.9-.65-1.07.05-2.15.18-3.2.35-6.16,1.02-12.16,2.91-18.12,4.77-7.07,2.21-13.94,4.69-20.89,7.31-4.88,1.84-9.95,3.02-14.82,4.79-1.73.62-3.41,1.69-4.2,3.39-1.03,2.21-.08,5.16,2.02,6.3,1.63.88,3.59.7,5.42.45,11.51-1.59,22.05-5.47,32.92-9.47,6.68-2.46,13.45-4.67,20.34-6.43,2.95-.75,5.96-1.43,8.64-2.9.66-.35,1.31-.77,1.74-1.4Z"/>
    <path class="cls-2" d="m310.99,128.33c.26,18.37-.52,35.4-1.9,50.88-1.76.68-4.4,1.7-7.6,2.94-30.46,11.73-37.53,13.79-43.7,16.64-19.12,8.86-22.25,15.81-40.85,28.38-12.88,8.71-32.63,19.73-60.79,27.4-.24-8.06-.55-16.22-.95-24.46-1.48-30.91-3.99-60.65-7.29-89.15,53.73-16.61,107.45-33.2,161.17-49.81,1.03,11.61,1.72,24.03,1.9,37.19Z"/>
    <path class="cls-2" d="m299.63,50.02c.6.7,1,1.53.95,2.45-.08,1.57-1.58,2.6-2.96,3.25-3.29,1.51-6.84,2.27-10.36,3.01-2.75.58-5.53,1.16-8.32,1.01-1.51-.08-3.19-.5-3.98-1.82-.35-.6-.48-1.31-.47-2.02.02-1.15.39-2.3,1.06-3.23.92-1.26,2.32-2.06,3.73-2.66,3.24-1.38,6.74-1.9,10.21-2.18,2.21-.18,4.54-.5,6.73.09,1.12.3,2.51,1.06,3.42,2.1Z"/>
    <path class="cls-2" d="m254.06,58.81c.88,1.19,1.14,2.97.29,4.2-.43.63-1.08,1.05-1.74,1.4-2.69,1.47-5.69,2.14-8.64,2.9-6.89,1.76-13.66,3.97-20.34,6.43-10.88,4-21.41,7.89-32.92,9.47-1.83.25-3.79.43-5.42-.45-2.1-1.14-3.05-4.09-2.02-6.3.79-1.69,2.47-2.77,4.2-3.39,4.87-1.77,9.94-2.96,14.82-4.79,6.95-2.62,13.82-5.1,20.89-7.31,5.97-1.86,11.96-3.75,18.12-4.77,1.05-.18,2.13-.3,3.2-.35,1.99-.1,3.99.06,5.9.65,1.4.42,2.78,1.13,3.67,2.32Z"/>
    <path class="cls-2" d="m147.92,140.95c3.3,28.5,5.8,58.23,7.29,89.15.4,8.24.71,16.4.95,24.46-14.47,2.06-26.8,2.75-36.1,2.94-31.9.66-57.8-3.92-74.3-7.81-10.22-2.4-18.61-4.94-24.49-6.87-1-14.6-1.66-29.95-1.9-45.99-.28-19.25.1-37.55.95-54.8-4.43-3.76-13.72-12.8-17.1-27.4-5.46-23.56,8.87-42.66,13.3-47.95.55-.65,1.14-1.31,1.76-2,.06-.07.12-.14.18-.21,7.59-8.16,15.77-12.08,22.76-15.41,18.99-9.03,35.98-8.94,44.65-8.81,9.26.16,23.08.38,38.95,7.83,7.29,3.42,24.11,11.32,34.2,30.34,3.48,6.55,10.53,19.85,6.65,36.21-3.56,15.03-14.19,23.52-17.75,26.13,0,.07.02.13.02.2Zm-21.69-23.88c.23-2.37-3.4-4.8-5.22-3.91-1.21.6-1.39,2.55-1.42,2.94-.1,1.13.09,3.17,1.42,3.91,1.83,1.04,5.02-.83,5.22-2.94Zm-13.77-10.76c3.54-.67,5.36-5.37,5.22-8.81-.04-.93-.14-3.59-1.9-4.89-3.17-2.34-10.75.52-11.4,5.38-.54,4.13,3.99,9.09,8.07,8.32Zm-3.32,10.76c.27-3.4-3.29-6.51-5.7-5.87-1.85.5-2.74,3.15-2.85,4.89-.14,2.13.69,5.25,2.85,5.87,2.38.68,5.47-1.93,5.7-4.89Z"/>
    <path class="cls-2" d="m121.01,113.16c1.82-.89,5.45,1.55,5.22,3.91-.2,2.1-3.39,3.97-5.22,2.94-1.33-.74-1.53-2.79-1.42-3.91.04-.38.22-2.34,1.42-2.94Z"/>
    <path class="cls-2" d="m117.69,97.51c.13,3.43-1.68,8.14-5.22,8.81-4.08.77-8.62-4.19-8.07-8.32.65-4.86,8.23-7.72,11.4-5.38,1.76,1.3,1.86,3.96,1.9,4.89Z"/>
    <path class="cls-2" d="m103.44,111.21c2.41-.64,5.97,2.48,5.7,5.87-.23,2.97-3.32,5.58-5.7,4.89-2.16-.62-2.99-3.74-2.85-5.87.11-1.74,1-4.39,2.85-4.89Z"/>
    <path class="cls-2" d="m18.28,64.68c-.62.68-1.21,1.35-1.76,2,.58-.69,1.17-1.36,1.76-2Z"/>
  </g>
  <g>
    <path class="cls-1" d="m18.28,64.68c-.59.64-1.18,1.3-1.76,2-4.43,5.29-18.76,24.39-13.3,47.95,3.38,14.6,12.67,23.64,17.1,27.4-.85,17.25-1.23,35.55-.95,54.8.24,16.04.9,31.39,1.9,45.99,5.88,1.93,14.27,4.47,24.49,6.87,16.5,3.88,42.4,8.46,74.3,7.81,9.3-.19,21.63-.87,36.1-2.94-.24-8.06-.55-16.22-.95-24.46-1.48-30.91-3.99-60.65-7.29-89.15,0-.07,0-.13-.02-.2,3.56-2.6,14.19-11.1,17.75-26.13,3.89-16.36-3.17-29.66-6.65-36.21-10.09-19.01-26.91-26.91-34.2-30.34-15.86-7.45-29.68-7.67-38.95-7.83-8.66-.14-25.66-.23-44.65,8.81-6.99,3.34-15.17,7.25-22.76,15.41"/>
    <path class="cls-1" d="m147.61,141.05c.1-.03.21-.07.31-.1,53.73-16.61,107.45-33.2,161.17-49.81.99-.28,2.39-.84,3.8-1.96,1.9-1.5,3.53-3.9,4.75-8.81,1.56-6.25,1.15-11.51.95-13.7-.86-9.62-1.44-16.05-4.75-23.49-4.65-10.48-11.76-16.51-16.96-20.59-18.66-14.64-40.72-17.43-51.44-18.55-12.51-1.3-66.75-6.96-131.09,8.81-8.17,2.01-22.99,5.94-40.85,13.7-10.69,4.65-22.11,9.7-35.15,19.57-8.55,6.49-15.13,13.02-19.91,18.35-.06.07-.12.14-.18.21-.62.68-1.21,1.35-1.76,2"/>
    <path class="cls-1" d="m156.16,254.56c28.16-7.67,47.91-18.69,60.79-27.4,18.6-12.56,21.72-19.52,40.85-28.38,6.16-2.85,13.23-4.9,43.7-16.64,3.2-1.23,5.84-2.25,7.6-2.94,1.38-15.48,2.16-32.52,1.9-50.88-.18-13.15-.87-25.58-1.9-37.19"/>
    <path class="cls-1" d="m244.5,55.85c-1.07.05-2.15.18-3.2.35-6.16,1.02-12.16,2.91-18.12,4.77-7.07,2.21-13.94,4.69-20.89,7.31-4.88,1.84-9.95,3.02-14.82,4.79-1.73.62-3.41,1.69-4.2,3.39-1.03,2.21-.08,5.16,2.02,6.3,1.63.88,3.59.7,5.42.45,11.51-1.59,22.05-5.47,32.92-9.47,6.68-2.46,13.45-4.67,20.34-6.43,2.95-.75,5.96-1.43,8.64-2.9.66-.35,1.31-.77,1.74-1.4.85-1.22.59-3-.29-4.2s-2.27-1.9-3.67-2.32c-1.91-.59-3.9-.74-5.9-.65Z"/>
    <path class="cls-1" d="m299.63,50.02c-.91-1.05-2.3-1.8-3.42-2.1-2.18-.59-4.51-.26-6.73-.09-3.47.28-6.97.8-10.21,2.18-1.42.6-2.81,1.4-3.73,2.66-.67.93-1.04,2.07-1.06,3.23,0,.7.12,1.42.47,2.02.79,1.32,2.47,1.74,3.98,1.82,2.79.16,5.58-.43,8.32-1.01,3.52-.74,7.08-1.51,10.36-3.01,1.39-.65,2.89-1.68,2.96-3.25.05-.92-.35-1.74-.95-2.45Z"/>
    <path class="cls-1" d="m117.69,97.51c.13,3.43-1.68,8.14-5.22,8.81-4.08.77-8.62-4.19-8.07-8.32.65-4.86,8.23-7.72,11.4-5.38,1.76,1.3,1.86,3.96,1.9,4.89Z"/>
    <path class="cls-1" d="m109.14,117.08c-.23,2.97-3.32,5.58-5.7,4.89-2.16-.62-2.99-3.74-2.85-5.87.11-1.74,1-4.39,2.85-4.89,2.41-.64,5.97,2.48,5.7,5.87Z"/>
    <path class="cls-1" d="m126.24,117.08c-.2,2.1-3.39,3.97-5.22,2.94-1.33-.74-1.53-2.79-1.42-3.91.04-.38.22-2.34,1.42-2.94,1.82-.89,5.45,1.55,5.22,3.91Z"/>
  </g>
</svg>