<?xml version="1.0" encoding="UTF-8"?>
<svg id="Layer_1" data-name="Layer 1" xmlns="http://www.w3.org/2000/svg" viewBox="0 0 320.79 259.57">
  <defs>
    <style>
      .cls-1 {
        fill: none;
        stroke: #003962;
        stroke-miterlimit: 10;
        stroke-width: 4px;
      }
    </style>
  </defs>
  <path class="cls-1" d="m18.46,64.49c-.33.36-.66.73-1,1.12-.31.35-.63.71-.94,1.09-4.43,5.28-18.76,24.38-13.3,47.95,3.39,14.59,12.68,23.63,17.1,27.4-.85,17.24-1.23,35.55-.95,54.8.24,16.03.91,31.38,1.9,45.99,5.88,1.92,14.28,4.46,24.49,6.87,16.51,3.88,42.4,8.46,74.3,7.81,9.3-.2,21.63-.88,36.1-2.94-.24-8.07-.55-16.23-.95-24.46-1.48-30.91-3.99-60.65-7.29-89.15,0-.07,0-.14-.02-.21,3.56-2.6,14.19-11.1,17.75-26.12,3.89-16.37-3.17-29.67-6.65-36.21-10.09-19.02-26.91-26.92-34.2-30.34-15.85-7.46-29.68-7.68-38.95-7.83-8.66-.15-25.65-.23-44.65,8.81-6.98,3.32-15.14,7.23-22.72,15.37"/>
  <path class="cls-1" d="m147.61,141.06c.1-.03.21-.07.31-.1,53.73-16.61,107.45-33.2,161.17-49.81.99-.29,2.4-.85,3.8-1.96,1.9-1.51,3.53-3.91,4.75-8.81,1.56-6.26,1.15-11.52.95-13.7-.86-9.63-1.44-16.06-4.75-23.49-4.65-10.49-11.76-16.52-16.95-20.59-18.67-14.65-40.73-17.44-51.45-18.55-12.51-1.31-66.74-6.97-131.09,8.81-8.17,2-22.99,5.93-40.85,13.7-10.69,4.64-22.11,9.7-35.15,19.57-8.53,6.47-15.1,13-19.87,18.31-.02,0-.03.03-.04.04-.34.38-.67.75-1,1.12-.32.37-.64.73-.94,1.09"/>
  <path class="cls-1" d="m156.16,254.57c28.16-7.68,47.92-18.7,60.79-27.4,18.6-12.57,21.73-19.53,40.85-28.38,6.16-2.86,13.24-4.91,43.7-16.64,3.2-1.23,5.84-2.26,7.6-2.94,1.38-15.49,2.16-32.53,1.9-50.88-.18-13.16-.86-25.59-1.9-37.19"/>
  <path class="cls-1" d="m244.5,55.85c-1.07.06-2.14.19-3.19.35-6.16,1.02-12.17,2.91-18.12,4.77-7.08,2.21-13.94,4.69-20.9,7.31-4.87,1.84-9.95,3.02-14.82,4.79-1.72.62-3.41,1.69-4.2,3.4-1.02,2.2-.07,5.15,2.02,6.29,1.63.89,3.6.7,5.42.45,11.51-1.59,22.05-5.47,32.92-9.47,6.68-2.46,13.46-4.67,20.35-6.43,2.94-.75,5.96-1.43,8.63-2.89.66-.36,1.31-.78,1.74-1.41.85-1.22.59-3-.29-4.2s-2.26-1.89-3.67-2.32c-1.91-.59-3.9-.74-5.9-.65Z"/>
  <path class="cls-1" d="m299.63,50.01c-.9-1.05-2.29-1.8-3.42-2.1-2.18-.59-4.5-.26-6.73-.09-3.47.28-6.96.8-10.2,2.18-1.42.6-2.82,1.4-3.74,2.66-.66.93-1.04,2.07-1.06,3.23,0,.7.12,1.42.47,2.02.8,1.32,2.47,1.74,3.98,1.82,2.8.16,5.59-.43,8.33-1.01,3.51-.74,7.08-1.5,10.35-3.01,1.39-.64,2.89-1.68,2.96-3.25.05-.91-.34-1.74-.95-2.45Z"/>
  <path class="cls-1" d="m117.69,97.51c.14,3.43-1.68,8.13-5.22,8.81-4.08.76-8.62-4.2-8.07-8.32.65-4.86,8.23-7.73,11.4-5.38,1.77,1.29,1.87,3.96,1.9,4.89Z"/>
  <path class="cls-1" d="m109.14,117.08c-.23,2.96-3.32,5.57-5.7,4.89-2.16-.63-2.98-3.75-2.85-5.87.12-1.75,1-4.4,2.85-4.89,2.41-.65,5.97,2.48,5.7,5.87Z"/>
  <path class="cls-1" d="m126.24,117.08c-.2,2.09-3.39,3.96-5.22,2.94-1.32-.75-1.52-2.8-1.42-3.91.04-.39.22-2.35,1.42-2.94,1.82-.9,5.45,1.54,5.22,3.91Z"/>
</svg>