<?xml version="1.0" encoding="UTF-8"?>
<svg id="Layer_1" data-name="Layer 1" xmlns="http://www.w3.org/2000/svg" viewBox="0 0 335.55 362.28">
  <defs>
    <style>
      .cls-1 {
        fill: none;
        stroke: #003962;
        stroke-miterlimit: 10;
        stroke-width: 4px;
      }

      .cls-2 {
        fill: #dad4c4;
        stroke-width: 0px;
      }
    </style>
  </defs>
  <g>
    <path class="cls-2" d="m332.06,176.87c3.88,13.25-.88,25.24-2.18,28.27-6.51,15.08-19.26,20.88-21.38,21.81-13.29,5.78-25.09,2.16-28.16,1.11l-.29-.04c.98-6.32,1.69-13.1,2.33-20.28l.41.04c6.65,2.26,13.73,3.92,20.6,2.56,6.87-1.36,13.47-6.37,15.09-13.51.53-2.37.51-4.86.25-7.28-.4-3.67-1.41-7.38-3.68-10.2-3.53-4.38-9.54-5.79-14.96-5.01-5.4.78-10.38,3.43-15.25,6.03l-.48-.02c.28-6.1.41-11.76.46-16.91h.51c8.71-5,19.1-6.71,28.85-4.76,2.47.5,6.43,1.68,10.29,5.07,4.95,4.35,6.64,9.86,7.59,13.12Z"/>
    <path class="cls-2" d="m318.72,189.54c.27,2.42.29,4.91-.25,7.28-1.62,7.13-8.22,12.14-15.09,13.51-6.87,1.36-13.95-.3-20.6-2.56l-.41-.04c.3-3.33.58-6.75.87-10.25.5-6.03.86-11.76,1.11-17.14l.48.02c4.86-2.6,9.84-5.25,15.25-6.03,5.41-.78,11.43.63,14.96,5.01,2.26,2.82,3.28,6.53,3.68,10.2Z"/>
    <path class="cls-2" d="m313.85,254.8c-1.37-3.16-3.2-5.86-5.31-8.16l.23-.21c3.87,4.22,9.48,11.75,10.91,22.11,2.31,16.77-7.73,30.13-14.57,38.97-4.55,5.86-20.49,25.12-61.19,39.73-37.14,13.32-68.22,13.2-85.24,12.98-22.12-.29-52.15-3.34-85.23-15.28-32.61-11.77-46.86-24.47-55.37-34.39-7.05-8.2-16.76-19.86-16.03-35.91.41-8.93,3.9-16.14,7.1-21-.47.83-.9,1.72-1.27,2.66-4.35,10.82.44,21.94,2.18,25.98,5.91,13.7,17.04,20.86,23.1,24.44,43.02,25.42,94.19,31.34,94.19,31.34,49.92,5.77,87.09-.9,97.34-2.89,0,0,62.79-12.19,83.33-41.43,8.16-11.62,8.62-23.16,8.62-23.16.08-1.84.22-8.86-2.79-15.8Z"/>
    <path class="cls-2" d="m257.02,124.91c8.17,4.17,27.84,14.2,27.63,25.8-.18,9.12-12.58,16.21-24.98,21.44-12.16-5.82-30.53-13.39-53.77-18.37,3.28-13.36,3.03-27.71-1-40.85-.08-.27-.17-.54-.25-.81,7.18.94,13.15,1.98,18.13,2.86,18.9,3.32,27.07,6.27,34.24,9.93Z"/>
    <path class="cls-2" d="m204.9,112.94c4.03,13.14,4.28,27.49,1,40.85-11.84-2.54-24.93-4.41-39.12-5.02.18-1.63.26-3.27.24-4.89-.11-9.68-3.03-19.05-5.67-28.32-.57-2.02-1.14-4.05-1.65-6.1,4.32-.03,8.82.02,13.55.17,12.46.4,22.8,1.37,31.41,2.5.08.27.17.54.25.81Z"/>
    <path class="cls-2" d="m167.02,143.88c.02,1.62-.06,3.26-.24,4.89-5-.22-10.13-.29-15.39-.17-9.71.22-19.13,1.2-28.08,2.7,3.7-12.81,2.95-27.05-2.36-39.24,10.81-1.34,23.56-2.48,38.75-2.6.51,2.05,1.08,4.08,1.65,6.1,2.64,9.27,5.56,18.64,5.67,28.32Z"/>
    <path class="cls-2" d="m166.78,148.77c14.19.61,27.28,2.48,39.12,5.02,23.24,4.98,41.61,12.55,53.77,18.37-5.04,2.13-10.09,3.95-14.31,5.47-31.25,11.28-57.79,11.19-102.72,10.7,0,0-18.94-.22-44.43-3.82-6.81-.97-24.09-3.59-40.15-12.87l.07-.12c14.52-6.34,37.71-15.65,65.17-20.22,8.95-1.5,18.37-2.48,28.08-2.7,5.27-.12,10.39-.05,15.39.17Z"/>
    <path class="cls-2" d="m41.98,152.21c-.2-5.12,2.05-9.36,3.04-11.25,4.16-7.95,11.5-12.12,24.04-16.81,19.57-7.32,35.47-9.79,36.43-9.94,4.66-.7,9.79-1.45,15.45-2.15,5.32,12.18,6.06,26.43,2.36,39.24-27.47,4.56-50.65,13.87-65.17,20.22l-.07.12c-1.7-.98-3.38-2.04-5.03-3.17-4.61-3.16-9.58-7.35-10.8-13.84-.16-.82-.24-1.62-.26-2.4Z"/>
    <path class="cls-2" d="m53.76,255.56c-3.52-8.23-5.77-16.09-7.38-23.66-1.63-7.65-2.61-15.01-3.55-22.17-3.1-23.5-2.29-43.43-.86-57.51.02.78.1,1.58.26,2.4,1.22,6.49,6.19,10.68,10.8,13.84,1.65,1.14,3.33,2.19,5.03,3.17,16.06,9.29,33.34,11.91,40.15,12.87,25.49,3.61,44.43,3.82,44.43,3.82,44.93.49,71.47.58,102.72-10.7,4.22-1.52,9.27-3.34,14.31-5.47,12.4-5.23,24.8-12.32,24.98-21.44h.1c.08,3.79.11,8.05.07,12.73-.05,5.15-.19,10.81-.46,16.91-.25,5.39-.6,11.12-1.11,17.14-.29,3.5-.57,6.92-.87,10.25-.64,7.17-1.35,13.95-2.33,20.28-.28,1.81-.57,3.58-.91,5.31-.5,2.67-1.07,5.25-1.72,7.73-8.24,31.43-32.92,59.8-62.64,74.87-4.23,2.14-57.21,27.86-109.28-1.52-3.87-2.18-35.4-20.58-51.73-58.83Z"/>
    <path class="cls-2" d="m9.14,253.66c3.63-6.48,9.89-10.09,16.94-14.15,7.94-4.57,15.27-6.62,20.31-7.62,1.61,7.58,3.86,15.43,7.38,23.66,16.32,38.25,47.85,56.65,51.73,58.83,52.07,29.39,105.05,3.67,109.28,1.52,29.72-15.07,54.4-43.44,62.64-74.87.65-2.48,1.22-5.06,1.72-7.73l.47.09c.97.08,18.4,1.69,28.93,13.23,2.1,2.3,3.93,5,5.31,8.16,3,6.94,2.87,13.96,2.79,15.8,0,0-.45,11.54-8.62,23.16-20.54,29.24-83.33,41.43-83.33,41.43-10.25,1.99-47.42,8.66-97.34,2.89,0,0-51.17-5.92-94.19-31.34-6.06-3.58-17.19-10.73-23.1-24.44-1.74-4.04-6.53-15.16-2.18-25.98.38-.94.8-1.83,1.27-2.66Z"/>
  </g>
  <g>
    <path class="cls-1" d="m41.98,152.21c.02.78.1,1.58.26,2.4,1.22,6.49,6.19,10.68,10.8,13.84,1.65,1.14,3.33,2.19,5.03,3.17,16.06,9.29,33.34,11.91,40.15,12.87,25.49,3.61,44.43,3.82,44.43,3.82,44.93.49,71.47.58,102.72-10.7,4.22-1.52,9.27-3.34,14.31-5.47,12.4-5.23,24.8-12.32,24.98-21.44.22-11.6-19.46-21.63-27.63-25.8-7.16-3.66-15.33-6.61-34.24-9.93-4.98-.88-10.95-1.92-18.13-2.86-8.61-1.13-18.95-2.1-31.41-2.5-4.72-.15-9.23-.2-13.55-.17-15.2.12-27.94,1.25-38.75,2.6-5.66.7-10.79,1.45-15.45,2.15-.96.15-16.86,2.62-36.43,9.94-12.54,4.68-19.88,8.85-24.04,16.81-1,1.9-3.24,6.14-3.04,11.25Z"/>
    <path class="cls-1" d="m42.11,150.89c-.05.43-.09.87-.13,1.32-1.43,14.08-2.24,34.01.86,57.51.94,7.16,1.92,14.52,3.55,22.17,1.61,7.58,3.86,15.43,7.38,23.66,16.32,38.25,47.85,56.65,51.73,58.83,52.07,29.39,105.05,3.67,109.28,1.52,29.72-15.07,54.4-43.44,62.64-74.87.65-2.48,1.22-5.06,1.72-7.73.34-1.73.63-3.5.91-5.31.98-6.32,1.69-13.1,2.33-20.28.3-3.33.58-6.75.87-10.25.5-6.03.86-11.76,1.11-17.14.28-6.1.41-11.76.46-16.91.04-4.67,0-8.93-.07-12.73,0-.72-.02-1.42-.04-2.11"/>
    <path class="cls-1" d="m285.33,163.44c8.71-5,19.1-6.71,28.85-4.76,2.47.5,6.43,1.68,10.29,5.07,4.95,4.35,6.64,9.86,7.59,13.12,3.88,13.25-.88,25.24-2.18,28.27-6.51,15.08-19.26,20.88-21.38,21.81-13.29,5.78-25.09,2.16-28.16,1.11"/>
    <path class="cls-1" d="m284.84,180.36c4.86-2.6,9.84-5.25,15.25-6.03,5.41-.78,11.43.63,14.96,5.01,2.26,2.82,3.28,6.53,3.68,10.2.27,2.42.29,4.91-.25,7.28-1.62,7.13-8.22,12.14-15.09,13.51-6.87,1.36-13.95-.3-20.6-2.56"/>
    <path class="cls-1" d="m46.48,231.87s-.07,0-.1.02c-5.04,1-12.36,3.04-20.31,7.62-7.05,4.06-13.31,7.67-16.94,14.15-.47.83-.9,1.72-1.27,2.66-4.35,10.82.44,21.94,2.18,25.98,5.91,13.7,17.04,20.86,23.1,24.44,43.02,25.42,94.19,31.34,94.19,31.34,49.92,5.77,87.09-.9,97.34-2.89,0,0,62.79-12.19,83.33-41.43,8.16-11.62,8.62-23.16,8.62-23.16.08-1.84.22-8.86-2.79-15.8-1.37-3.16-3.2-5.86-5.31-8.16-10.53-11.54-27.96-13.15-28.93-13.23"/>
    <path class="cls-1" d="m12.24,249.44c-.9,1.11-1.98,2.52-3.09,4.22-3.2,4.86-6.7,12.06-7.1,21-.73,16.05,8.98,27.71,16.03,35.91,8.51,9.91,22.77,22.62,55.37,34.39,33.08,11.94,63.11,14.99,85.23,15.28,17.02.22,48.1.34,85.24-12.98,40.7-14.61,56.65-33.87,61.19-39.73,6.85-8.84,16.89-22.2,14.57-38.97-1.43-10.36-7.04-17.89-10.91-22.11-.26-.29-.51-.54-.75-.8"/>
    <path class="cls-1" d="m58.13,171.51c14.52-6.34,37.71-15.65,65.17-20.22,8.95-1.5,18.37-2.48,28.08-2.7,5.27-.12,10.39-.05,15.39.17,14.19.61,27.28,2.48,39.12,5.02,23.24,4.98,41.61,12.55,53.77,18.37.09.04.18.09.27.13"/>
    <path class="cls-1" d="m156.42,169.51c6.22-4.71,9.51-12.64,10.36-20.74.18-1.63.26-3.27.24-4.89-.11-9.68-3.03-19.05-5.67-28.32-.57-2.02-1.14-4.05-1.65-6.1-1.87-7.36-3.15-14.91-2.36-22.44,1.1-10.32,6-19.71,11.15-28.58,5.16-8.86,10.73-17.66,13.44-27.65,2.71-9.98,2.06-21.62-4.34-29.54"/>
    <path class="cls-1" d="m197.86,173.73c3.64-6.18,6.33-12.92,8.04-19.95,3.28-13.36,3.03-27.71-1-40.85-.08-.27-.17-.54-.25-.81-3.34-10.51-8.78-21.04-6.84-31.89,1.36-7.6,6.18-13.92,9.91-20.59s6.48-14.98,3.4-22.01"/>
    <path class="cls-1" d="m118.69,162.51c1.95-3.54,3.49-7.31,4.61-11.21,3.7-12.81,2.95-27.05-2.36-39.24-.14-.34-.3-.67-.44-1.01-4.11-8.94-10.68-17.3-10.69-27.22,0-7.53,3.86-14.44,8.18-20.45,4.32-6.01,9.29-11.66,12.11-18.58s3.04-15.67-1.7-21.31"/>
  </g>
</svg>