<?xml version="1.0" encoding="UTF-8"?>
<svg id="Layer_1" data-name="Layer 1" xmlns="http://www.w3.org/2000/svg" viewBox="0 0 335.55 362.28">
  <defs>
    <style>
      .cls-1 {
        stroke: #003962;
      }

      .cls-1, .cls-2 {
        fill: none;
        stroke-miterlimit: 10;
        stroke-width: 4px;
      }

      .cls-2 {
        stroke: #dad5c7;
      }

      .cls-3 {
        fill: #003962;
        stroke-width: 0px;
      }
    </style>
  </defs>
  <g>
    <path class="cls-3" d="m332.06,176.86c3.88,13.25-.87,25.25-2.18,28.27-6.5,15.09-19.26,20.89-21.38,21.81-13.29,5.78-25.09,2.16-28.15,1.12l-.29-.04c.98-6.32,1.68-13.11,2.31-20.29l.41.04c6.65,2.27,13.73,3.93,20.6,2.56,6.88-1.36,13.47-6.37,15.09-13.51.54-2.37.51-4.85.26-7.27-.41-3.67-1.41-7.39-3.69-10.21-3.53-4.37-9.54-5.78-14.95-5-5.41.78-10.39,3.42-15.26,6.03l-.48-.02c.28-6.1.41-11.75.46-16.91h.52c8.7-5,19.09-6.72,28.84-4.76,2.47.49,6.43,1.67,10.29,5.07,4.95,4.35,6.64,9.86,7.59,13.11Z"/>
    <path class="cls-3" d="m319.68,268.54c2.32,16.76-7.73,30.13-14.57,38.96-4.54,5.87-20.49,25.13-61.19,39.73-37.14,13.33-68.22,13.21-85.24,12.99-22.12-.29-52.15-3.34-85.23-15.29-32.61-11.77-46.85-24.46-55.37-34.38-7.05-8.21-16.76-19.86-16.03-35.91.41-8.95,3.92-16.16,7.12-21.03-.48.84-.91,1.74-1.29,2.69-4.35,10.82.44,21.94,2.18,25.98,5.91,13.7,17.05,20.85,23.1,24.43,43.02,25.42,94.19,31.34,94.19,31.34,49.93,5.78,87.09-.89,97.34-2.88,0,0,62.8-12.2,83.33-41.43,8.16-11.62,8.63-23.17,8.63-23.17.07-1.83.21-8.85-2.8-15.8-1.45-3.36-3.42-6.19-5.68-8.58l.22-.21c3.89,4.15,9.81,11.82,11.29,22.54Z"/>
    <path class="cls-3" d="m318.73,189.55c.26,2.42.29,4.9-.26,7.27-1.62,7.13-8.21,12.14-15.09,13.51-6.87,1.37-13.95-.29-20.6-2.56l-.41-.04c.31-3.33.59-6.75.88-10.24.5-6.03.86-11.76,1.11-17.14l.48.02c4.86-2.61,9.84-5.25,15.26-6.03,5.4-.78,11.42.63,14.95,5,2.27,2.82,3.28,6.54,3.69,10.21Z"/>
    <path class="cls-3" d="m9.16,253.63c3.63-6.47,9.88-10.08,16.92-14.12,7.94-4.57,15.28-6.62,20.31-7.62,1.61,7.57,3.86,15.42,7.38,23.66,16.32,38.25,47.86,56.64,51.73,58.82,52.07,29.4,105.06,3.68,109.28,1.53,29.72-15.07,54.4-43.44,62.65-74.88.65-2.48,1.23-5.06,1.72-7.73l.46.09c.96.07,17.98,1.65,28.56,12.82,2.26,2.39,4.23,5.22,5.68,8.58,3,6.95,2.87,13.97,2.8,15.8,0,0-.46,11.55-8.63,23.17-20.53,29.23-83.33,41.43-83.33,41.43-10.25,1.99-47.41,8.66-97.34,2.88,0,0-51.17-5.92-94.19-31.34-6.05-3.58-17.19-10.72-23.1-24.43-1.74-4.04-6.53-15.16-2.18-25.98.39-.95.81-1.85,1.29-2.69Z"/>
    <path class="cls-3" d="m259.69,172.15c12.4-5.24,24.79-12.32,24.96-21.44h.1c.08,3.79.11,8.05.07,12.73-.05,5.16-.19,10.81-.46,16.91-.25,5.39-.6,11.12-1.11,17.14-.29,3.49-.57,6.91-.88,10.24-.63,7.17-1.33,13.96-2.31,20.29-.28,1.81-.57,3.57-.91,5.3-.49,2.67-1.07,5.25-1.72,7.73-8.25,31.44-32.93,59.81-62.65,74.88-4.22,2.14-57.21,27.86-109.28-1.53-3.86-2.18-35.4-20.57-51.73-58.82-3.52-8.24-5.77-16.1-7.38-23.66-1.63-7.66-2.61-15.02-3.55-22.18-3.09-23.49-2.29-43.42-.86-57.51.02.78.11,1.59.26,2.4,1.22,6.5,6.19,10.68,10.8,13.85,1.65,1.14,3.33,2.18,5.03,3.16,16.06,9.3,33.35,11.92,40.15,12.88,25.49,3.61,44.43,3.81,44.43,3.81,44.94.5,71.47.58,102.72-10.69,4.23-1.52,9.28-3.35,14.33-5.47Z"/>
    <path class="cls-3" d="m257.02,124.9c8.17,4.17,27.84,14.2,27.63,25.81-.17,9.12-12.56,16.2-24.96,21.44-12.16-5.82-30.54-13.39-53.78-18.37,3.28-13.37,3.02-27.71-1.01-40.86-.08-.27-.17-.53-.25-.8,7.18.94,13.15,1.97,18.13,2.85,18.9,3.33,27.07,6.28,34.24,9.93Z"/>
    <path class="cls-3" d="m123.31,151.29c8.95-1.5,18.37-2.48,28.08-2.7,5.27-.12,10.4-.05,15.4.17,14.18.62,27.28,2.49,39.12,5.03,23.24,4.98,41.62,12.55,53.78,18.37-5.05,2.12-10.1,3.95-14.33,5.47-31.25,11.27-57.78,11.19-102.72,10.69,0,0-18.94-.21-44.43-3.81-6.8-.97-24.09-3.59-40.15-12.88l.07-.11c14.53-6.34,37.71-15.66,65.17-20.23Z"/>
    <path class="cls-3" d="m204.9,112.93c4.03,13.15,4.29,27.49,1.01,40.86-11.84-2.54-24.94-4.41-39.12-5.03.17-1.64.25-3.27.23-4.89-.11-9.67-3.03-19.04-5.67-28.32-.57-2.02-1.13-4.04-1.64-6.09,4.31-.03,8.82.02,13.54.17,12.46.4,22.8,1.37,31.41,2.5.08.27.17.53.25.8Z"/>
    <path class="cls-3" d="m167.02,143.87c.02,1.62-.06,3.25-.23,4.89-5-.22-10.14-.29-15.4-.17-9.71.22-19.13,1.2-28.08,2.7,3.7-12.81,2.95-27.04-2.34-39.23,10.81-1.34,23.56-2.48,38.74-2.6.51,2.05,1.07,4.07,1.64,6.09,2.64,9.28,5.56,18.65,5.67,28.32Z"/>
    <path class="cls-3" d="m41.98,152.21c-.19-5.12,2.05-9.35,3.04-11.25,4.17-7.94,11.51-12.11,24.04-16.81,19.58-7.32,35.47-9.79,36.43-9.93,4.66-.7,9.8-1.46,15.47-2.15,5.3,12.18,6.04,26.42,2.34,39.23-27.46,4.56-50.64,13.88-65.17,20.23l-.07.11c-1.7-.98-3.38-2.03-5.03-3.16-4.61-3.17-9.58-7.35-10.8-13.85-.15-.81-.24-1.62-.26-2.4Z"/>
  </g>
  <g>
    <path class="cls-2" d="m41.98,152.21c.02.78.11,1.59.26,2.4,1.22,6.5,6.19,10.68,10.8,13.85,1.65,1.14,3.33,2.18,5.03,3.16,16.06,9.3,33.35,11.92,40.15,12.88,25.49,3.61,44.43,3.81,44.43,3.81,44.94.5,71.47.58,102.72-10.69,4.23-1.52,9.28-3.35,14.33-5.47,12.4-5.24,24.79-12.32,24.96-21.44.22-11.61-19.46-21.64-27.63-25.81-7.16-3.65-15.33-6.6-34.24-9.93-4.98-.88-10.95-1.91-18.13-2.85-8.61-1.13-18.95-2.1-31.41-2.5-4.71-.15-9.23-.2-13.54-.17-15.19.12-27.93,1.25-38.74,2.6-5.67.69-10.81,1.45-15.47,2.15-.96.14-16.85,2.61-36.43,9.93-12.53,4.69-19.87,8.86-24.04,16.81-1,1.91-3.23,6.14-3.04,11.25Z"/>
    <path class="cls-2" d="m42.11,150.88c-.05.43-.09.87-.13,1.32-1.43,14.09-2.23,34.02.86,57.51.94,7.16,1.92,14.52,3.55,22.18,1.61,7.57,3.86,15.42,7.38,23.66,16.32,38.25,47.86,56.64,51.73,58.82,52.07,29.4,105.06,3.68,109.28,1.53,29.72-15.07,54.4-43.44,62.65-74.88.65-2.48,1.23-5.06,1.72-7.73.34-1.73.63-3.49.91-5.3.98-6.32,1.68-13.11,2.31-20.29.31-3.33.59-6.75.88-10.24.5-6.03.86-11.76,1.11-17.14.28-6.1.41-11.75.46-16.91.04-4.67,0-8.93-.07-12.73,0-.72-.02-1.43-.04-2.12"/>
    <path class="cls-2" d="m285.34,163.44c8.7-5,19.09-6.72,28.84-4.76,2.47.49,6.43,1.67,10.29,5.07,4.95,4.35,6.64,9.86,7.59,13.11,3.88,13.25-.87,25.25-2.18,28.27-6.5,15.09-19.26,20.89-21.38,21.81-13.29,5.78-25.09,2.16-28.15,1.12"/>
    <path class="cls-2" d="m284.84,180.37c4.86-2.61,9.84-5.25,15.26-6.03,5.4-.78,11.42.63,14.95,5,2.27,2.82,3.28,6.54,3.69,10.21.26,2.42.29,4.9-.26,7.27-1.62,7.13-8.21,12.14-15.09,13.51-6.87,1.37-13.95-.29-20.6-2.56"/>
    <path class="cls-2" d="m46.48,231.87s-.07,0-.1.02c-5.03,1-12.36,3.04-20.31,7.62-7.04,4.04-13.29,7.65-16.92,14.12-.48.84-.91,1.74-1.29,2.69-4.35,10.82.44,21.94,2.18,25.98,5.91,13.7,17.05,20.85,23.1,24.43,43.02,25.42,94.19,31.34,94.19,31.34,49.93,5.78,87.09-.89,97.34-2.88,0,0,62.8-12.2,83.33-41.43,8.16-11.62,8.63-23.17,8.63-23.17.07-1.83.21-8.85-2.8-15.8-1.45-3.36-3.42-6.19-5.68-8.58-10.57-11.17-27.6-12.75-28.56-12.82"/>
    <path class="cls-2" d="m12.24,249.44c-.89,1.1-1.97,2.5-3.07,4.19-3.2,4.86-6.71,12.07-7.12,21.03-.73,16.05,8.98,27.7,16.03,35.91,8.52,9.91,22.77,22.61,55.37,34.38,33.08,11.95,63.11,15,85.23,15.29,17.02.22,48.1.34,85.24-12.99,40.7-14.6,56.66-33.86,61.19-39.73,6.85-8.83,16.9-22.2,14.57-38.96-1.48-10.72-7.4-18.39-11.29-22.54-.12-.13-.25-.26-.37-.39"/>
    <path class="cls-2" d="m58.13,171.51c14.53-6.34,37.71-15.66,65.17-20.23,8.95-1.5,18.37-2.48,28.08-2.7,5.27-.12,10.4-.05,15.4.17,14.18.62,27.28,2.49,39.12,5.03,23.24,4.98,41.62,12.55,53.78,18.37.09.04.17.08.25.12"/>
    <path class="cls-1" d="m159.71,109.46c-1.87-7.37-3.16-14.91-2.36-22.44,1.09-10.32,5.99-19.72,11.15-28.58,5.15-8.86,10.73-17.67,13.43-27.65,2.71-9.98,2.06-21.63-4.34-29.54"/>
    <path class="cls-2" d="m156.42,169.51c6.23-4.73,9.51-12.65,10.37-20.75.17-1.64.25-3.27.23-4.89-.11-9.67-3.03-19.04-5.67-28.32-.57-2.02-1.13-4.04-1.64-6.09"/>
    <path class="cls-1" d="m204.65,112.13c-3.33-10.5-8.78-21.04-6.84-31.89,1.37-7.61,6.19-13.92,9.91-20.59,3.73-6.68,6.48-14.99,3.4-22.01"/>
    <path class="cls-2" d="m197.86,173.74c3.64-6.18,6.33-12.92,8.05-19.95,3.28-13.37,3.02-27.71-1.01-40.86-.08-.27-.17-.53-.25-.8"/>
    <path class="cls-1" d="m120.96,112.06c-.15-.34-.3-.68-.45-1.02-4.12-8.93-10.69-17.29-10.69-27.22,0-7.52,3.85-14.44,8.17-20.44,4.33-6.01,9.29-11.66,12.11-18.58s3.05-15.67-1.7-21.31"/>
    <path class="cls-2" d="m118.69,162.5c1.95-3.54,3.49-7.31,4.61-11.21,3.7-12.81,2.95-27.04-2.34-39.23"/>
  </g>
</svg>