<?xml version="1.0" encoding="UTF-8"?>
<svg id="Layer_1" data-name="Layer 1" xmlns="http://www.w3.org/2000/svg" viewBox="0 0 288.45 277.11">
  <defs>
    <style>
      .cls-1 {
        fill: none;
        stroke: #dad5c7;
        stroke-miterlimit: 10;
        stroke-width: 4px;
      }

      .cls-2 {
        fill: #003962;
        stroke-width: 0px;
      }
    </style>
  </defs>
  <g>
    <path class="cls-2" d="m285.54,138.06c.3,12.51.6,25.03.91,37.54-27.55,16.49-66.84,40.1-114.45,68.98-22.85,13.86-48.31,29.35-49.25,29.99-.02.01-.03.01-.03.01-.13.01-.28.02-.41.03-.13-18.75-.27-37.5-.4-56.25h.4c54.37-26.77,108.75-53.54,163.12-80.3h.11Z"/>
    <path class="cls-2" d="m284.45,93.2c.37,14.94.72,29.9,1.09,44.85h-.11c-54.37,26.76-108.75,53.53-163.12,80.3h-.4c-.11-16.04-.22-32.08-.34-48.11,54.24-25.69,108.47-51.36,162.7-77.05h.18Z"/>
    <path class="cls-2" d="m283.39,49.41c.36,14.6.7,29.19,1.06,43.79h-.18c-54.23,25.69-108.46,51.36-162.7,77.05-.11-15.77-.21-31.53-.33-47.29v-.06c54.05-24.5,108.1-48.99,162.15-73.48Z"/>
    <path class="cls-2" d="m283.39,49.41c-54.05,24.49-108.1,48.98-162.15,73.48v.06h-.2c-16.33.26-41.83-1.72-66.89-14.67-10.41-5.38-17.96-11.22-20.02-12.85-14.49-11.39-23.67-23.85-29.07-32.46v-.11c21.06-1.03,42.14-2.03,63.21-3.05,1.3,7.05,4.45,13.76,9.31,19.05,6.91,7.53,17.35,11.97,27.6,11.05,7.49-.67,14.61-4.09,20.16-9.11,2.32-2.1,9.1-8.03,12.08-18.55.25-.93.85-3.02,1.22-5.85,48.25-2.34,96.5-4.65,144.75-6.99Z"/>
    <path class="cls-2" d="m172,244.58c47.61-28.88,86.9-52.49,114.45-68.98-130.86,79.21-162.72,98.43-163.71,98.97.95-.65,26.41-16.13,49.25-29.99Z"/>
    <path class="cls-2" d="m68.27,59.81c-.57-2.96-.8-6-.69-9.01.12-3.62.66-16.98,11.51-26.44,9.79-8.52,21.88-8.41,27.64-7.34.88.16,2.06.44,3.44.82-1.29,2.84-2.32,5.78-3.15,8.62,2.8,1.3,5.61,2.62,8.41,3.93.3-1.96,1.01-5.45,3.01-9.33,3.62,1.84,6.03,3.66,6.93,4.36,2.45,1.91,7.07,5.46,10.2,11.47,3.73,7.16,3.74,14.49,3.08,19.5-.38,2.83-.97,4.92-1.22,5.85-2.98,10.52-9.76,16.46-12.08,18.55-5.55,5.03-12.66,8.45-20.16,9.11-10.25.92-20.69-3.52-27.6-11.05-4.86-5.3-8-12-9.31-19.05Z"/>
    <path class="cls-2" d="m118.43,21.07c-2,3.88-2.71,7.37-3.01,9.33-2.8-1.31-5.61-2.63-8.41-3.93.83-2.85,1.86-5.79,3.15-8.62,3.05-6.72,7.56-12.79,14.26-15.34.29-.11.58-.22.89-.32.37.21.74.43,1.12.68,2.42,1.59,4.09,3.58,5.21,5.33-2.31,1.12-7,3.74-10.9,9.11-.92,1.27-1.68,2.53-2.31,3.76Z"/>
    <path class="cls-2" d="m121.57,170.25c.11,16.03.22,32.07.34,48.11.13,18.75.27,37.5.4,56.25-13.02,1.13-34.56,1.08-58.51-8.23-6.4-2.49-20.99-8.76-36.53-21.62-11.78-9.74-19.93-19.81-25.26-27.45,1.02-51.46,2.04-102.9,3.06-154.34,5.39,8.61,14.58,21.08,29.07,32.46,2.06,1.63,9.61,7.47,20.02,12.85,25.06,12.95,50.56,14.93,66.89,14.67h.2c.11,15.77.21,31.53.33,47.29Z"/>
  </g>
  <g>
    <path class="cls-1" d="m121.24,122.9c54.05-24.5,108.1-48.99,162.15-73.48"/>
    <path class="cls-1" d="m121.24,122.9v.06c.11,15.77.21,31.53.33,47.29.11,16.03.22,32.07.34,48.11.13,18.75.27,37.5.4,56.25v.06"/>
    <path class="cls-1" d="m122.74,274.57c.95-.65,26.41-16.13,49.25-29.99,47.61-28.88,86.9-52.49,114.45-68.98-130.86,79.21-162.72,98.43-163.71,98.97-.02.01-.03.01-.03.01"/>
    <path class="cls-1" d="m282.37,49.41h1.02c.36,14.6.7,29.19,1.06,43.79.37,14.94.72,29.9,1.09,44.85.3,12.51.6,25.03.91,37.54"/>
    <path class="cls-1" d="m2,217.32c5.33,7.63,13.49,17.71,25.26,27.45,15.54,12.86,30.13,19.13,36.53,21.62,23.95,9.31,45.49,9.35,58.51,8.23.13-.01.28-.02.41-.03"/>
    <path class="cls-1" d="m2,217.32c1.02-51.46,2.04-102.9,3.06-154.34"/>
    <path class="cls-1" d="m5.06,62.97c5.39,8.61,14.58,21.08,29.07,32.46,2.06,1.63,9.61,7.47,20.02,12.85,25.06,12.95,50.56,14.93,66.89,14.67"/>
    <path class="cls-1" d="m68.48,59.8c-.07,0-.14.01-.21.01-21.07,1.01-42.15,2.01-63.22,3.05l-.64.03"/>
    <path class="cls-1" d="m283.39,49.41c-48.25,2.34-96.5,4.65-144.75,6.99-.06,0-.13.01-.19.01"/>
    <path class="cls-1" d="m110.35,17.9c-.06-.02-.13-.04-.19-.05-1.38-.39-2.56-.67-3.44-.82-5.76-1.06-17.85-1.18-27.64,7.34-10.85,9.46-11.39,22.82-11.51,26.44-.1,3.01.12,6.05.69,9.01,1.3,7.05,4.45,13.76,9.31,19.05,6.91,7.53,17.35,11.97,27.6,11.05,7.49-.67,14.61-4.09,20.16-9.11,2.32-2.1,9.1-8.03,12.08-18.55.25-.93.85-3.02,1.22-5.85.66-5.02.65-12.34-3.08-19.5-3.13-6.01-7.75-9.56-10.2-11.47-.91-.7-3.31-2.52-6.93-4.36-.03-.01-.05-.03-.08-.04"/>
    <path class="cls-1" d="m118.43,21.07c-2,3.88-2.71,7.37-3.01,9.33-2.8-1.31-5.61-2.63-8.41-3.93.83-2.85,1.86-5.79,3.15-8.62,3.05-6.72,7.56-12.79,14.26-15.34.29-.11.58-.22.89-.32.37.21.74.43,1.12.68,2.42,1.59,4.09,3.58,5.21,5.33-2.31,1.12-7,3.74-10.9,9.11-.92,1.27-1.68,2.53-2.31,3.76Z"/>
    <path class="cls-1" d="m121.28,170.39c.09-.04.19-.09.29-.14,54.24-25.69,108.47-51.36,162.7-77.05"/>
    <path class="cls-1" d="m122.3,218.36c54.37-26.77,108.75-53.54,163.12-80.3"/>
  </g>
</svg>