<?xml version="1.0" encoding="UTF-8"?>
<svg id="Layer_1" data-name="Layer 1" xmlns="http://www.w3.org/2000/svg" viewBox="0 0 360.97 247.58">
  <defs>
    <style>
      .cls-1 {
        fill: none;
        stroke: #dad5c7;
        stroke-miterlimit: 10;
        stroke-width: 4px;
      }

      .cls-2 {
        fill: #003962;
        stroke-width: 0px;
      }
    </style>
  </defs>
  <g>
    <path class="cls-2" d="m343.8,127.74c4.07,5.58,8.13,11.18,12.2,16.77-12.79-3.5-25.92-4.39-38.88-2.67l-1.26-.42c.75-2.48,1.51-4.59,2.18-6.3.84-1.81,1.38-3.57,3.01-5.41,5.15-5.81,13.73-3.87,18.42-2.81,1.48.34,2.81.74,4.32.84Z"/>
    <path class="cls-2" d="m38.96,137.58c-3.82-2-8.05-1.64-12.1-1.01-4.21.66-8.49,1.59-12.64.38-.49-.14-7.99-3.44-9.31-10.99-1.29-7.34,3.49-17.61,12.53-22.23l.17.02c-.36,5.99.34,11.05,2.4,14.44,2.69,4.43,7.01,4.87,8.74,5.02,46.84,3.91,226.36-.26,245.61,0,6.9.09,16.36.55,35.41-1.08,9.78-.84,21.09-2.28,24.11-11.9.67-2.15.75-4.1.75-5.41.02-1.76-.05-3.52-.17-5.26l.93-.15c5.41-.09,9.36,2,11.57,3.5,2.97,1.99,5.76,3.86,7.13,8.32,1.12,3.63,1.34,9.07-.78,12.62-1.73,2.89-4.3,3.35-6.58,3.75-1.08.19-2.03.23-2.92.14-1.51-.11-2.84-.51-4.32-.84-4.69-1.06-13.28-3-18.42,2.81-1.63,1.84-2.17,3.6-3.01,5.41-5.78,12.25-20.98,15.16-30.89,14.07-17.36-1.94-17.61-16.08-30.89-15.15-13.25.92-15.79,15.24-28.63,14.07-10.43-.95-10.31-10.56-21.1-12.99-8.92-2.01-14.93,3.22-21.1,7.56-5.09,3.59-10.29,6.57-17.33,4.34-8.21-2.6-7.69-8.71-16.58-10.82-8.74-2.08-11.21,3.35-26.48,7.91-9.97,2.97-19.85,7.34-30.7,2.15-6.03-2.89-11.63-8.93-17.98-8.42-8.31.67-15.32,12.52-23.5,10.38-5.06-1.32-8.72-7.67-13.49-10.41-.14-.09-.29-.16-.44-.23Z"/>
    <path class="cls-2" d="m346.35,162.38c1.81,4.52,2.12,10.07.38,14.65-2.81,7.39-8.96,8.12-14.16,6.68-.06-.02-.13-.03-.19-.05-4.27-1.21-8.43-3.58-12.79-3.64-12.46-.16-18.4,14.92-31.55,19.09-6.47,2.05-16.06,1.19-29.52-12.04l-.12-.22c2.08-2.46,4.38-4.93,6.9-7.36,8.21-7.89,15.98-12.44,21.85-15.15l.04-.23c7.79,2.86,16.42,6.76,25.58,12.13-.51-4.73-.87-11.51,0-19.48.3-2.76.71-5.33,1.18-7.7l.32.13c8.35-1.24,14.9.47,19.08,2.09,6.34,2.45,10.37,4.54,13,11.1Z"/>
    <path class="cls-2" d="m334.45,99.56c.13,1.74.19,3.5.17,5.26,0,1.31-.08,3.26-.75,5.41-3.02,9.62-14.33,11.06-24.11,11.9-19.05,1.63-28.51,1.17-35.41,1.08-19.26-.26-198.77,3.91-245.61,0-1.73-.15-6.05-.6-8.74-5.02-2.06-3.39-2.76-8.44-2.4-14.44.95-15.64,9.13-37.65,19.42-53.05,5.45-8.17,10.95-13.67,14.96-17.12,0,0,2.07-1.79,4.42-3.52,12.1-8.92,37.99-18.32,42.38-19.9.06.1.13.18.19.28l-.16.22c-1.51,3.19-8.35,18.3-4.94,35.17.84,4.13,2.12,7.55,3.44,10.28,3.03-2.93,7.15-7.47,11.3-14.07,3.27-5.21,5.3-9.68,6.78-12.99,2.46-5.49,5.58-13.44,8.29-23.81,4.95-.93,10.23-1.68,15.82-2.16,5.03-.44,9.82-.63,14.37-.63.06.08.13.15.19.23l-.24.4c-2.66,4.09-7.56,12.82-9.79,25.97-1.52,8.97-1.23,16.68-.75,21.64.46-.25.95-.53,1.47-.83,2.72-1.61,6.19-4.08,9.83-7.82,4.2-4.33,6.81-8.49,8.29-10.82,4.5-7.11,10.61-16.34,19.51-29.11,4.2-.11,8.5-.15,12.88-.11,5.99.05,11.82.26,17.47.6l.61.49c-2.39,3.61-4.03,6.99-5.12,9.48-.76,1.74-1.55,4.03-3.16,8.55-1.33,3.75-2,5.66-2.27,6.86-1.19,5.19-.85,9.7-.75,10.82.53,6.04,2.52,10.26,3.59,12.18l.23-.16h0c1.71-1.32,4.14-3.43,6.74-6.61,1.79-2.22,2.77-3.84,5.27-7.57,0,0,2.77-4.16,6.78-9.74,5.91-8.26,13.97-15.81,18.08-19.48l.06-.76c8.51,1.33,20.7,4.31,34.6,11.58,13.02,6.82,29.37,15.68,42.94,37.87,0,0,12.52,20.46,14.14,43.44Z"/>
    <path class="cls-2" d="m332.38,183.65l-.02.16c-5.41,9.76-14.18,23.31-27.12,34.63-8.13,7.1-22.73,17.53-71.85,23.77-13.15,1.67-35.06,3.83-64.52,3.28-29.84-.57-45.76-3.63-77.6-9.74-22.51-4.33-37.4-8.48-48.97-25.97-6.31-9.53-9.55-19.89-11.3-27.05l-.05-.39c.9-.29,1.91-.52,3.07-.69,2.83-.42,4.25-.63,6.03,0,6.58,2.29,6.94,11.52,12.45,14.81,4.81,2.87,7.19-1.54,14.74-3.45,8.49-2.16,16.58,5.1,23.91,11.63s16.06,12.87,24.21,8.82c8.99-4.46,14.31-20.4,23.79-21.49,7.24-.84,8.14,5.91,18.04,8.86,14.32,4.27,17.59-8.66,34.31-8.36,11.2.19,15.69,6.35,23.76,7.75,3.83.67,6.25.11,7.89-.17,2.81-.49,8.92-3.47,16.58-8.66l.4-.98c3.47,2.91,6.59,5.8,9.4,8.56,2.37-3.71,5.32-7.89,8.92-12.12l.12.22c13.46,13.23,23.05,14.09,29.52,12.04,13.15-4.17,19.08-19.25,31.55-19.09,4.36.05,8.52,2.42,12.79,3.64Z"/>
    <path class="cls-2" d="m318.04,135.12c-.68,1.71-1.44,3.82-2.18,6.3-.68,2.24-1.34,4.8-1.91,7.64-.47,2.37-.88,4.95-1.18,7.7-.87,7.96-.51,14.75,0,19.48-9.16-5.37-17.79-9.27-25.58-12.13-6.4-2.36-12.26-4-17.37-5.18-19.43-4.49-34.6-3.66-39.93-3.25-15.19,1.17-27.99,4.89-37.67,8.66-1.67-10.04-4.69-17.36-6.78-21.64h0c6.17-4.35,12.18-9.59,21.1-7.57,10.78,2.42,10.66,12.03,21.1,12.99,12.84,1.17,15.38-13.15,28.63-14.07,13.28-.93,13.53,13.21,30.89,15.15,9.91,1.09,25.11-1.82,30.89-14.07Z"/>
    <path class="cls-2" d="m287.19,164.11l-.04.23c-5.87,2.71-13.64,7.26-21.85,15.15-2.52,2.42-4.82,4.9-6.9,7.36-3.6,4.23-6.55,8.41-8.92,12.12-2.8-2.76-5.93-5.65-9.4-8.56-5.42-4.56-11.66-9.15-18.7-13.35-10.92-6.53-20.93-10.38-29.16-12.71,9.68-3.77,22.48-7.49,37.67-8.66,5.33-.41,20.5-1.24,39.93,3.25,5.11,1.18,10.96,2.82,17.37,5.18Z"/>
    <path class="cls-2" d="m242.76,6.67l-.06.76c-4.11,3.67-12.18,11.22-18.08,19.48-4.01,5.58-6.78,9.74-6.78,9.74-2.5,3.73-3.48,5.36-5.27,7.57-2.59,3.18-5.03,5.29-6.74,6.6l-.05-.11c1.56-6.11,3.92-13.65,7.53-21.64,3.21-7.11,6.58-12.74,9.51-17.02l.02-.38c.11.08.2.1.26.09,6.49-1.71,12.98-3.42,19.48-5.12.06.01.11.02.17.03Z"/>
    <path class="cls-2" d="m240.09,190.4l-.4.98c-7.65,5.18-13.76,8.17-16.58,8.66-1.64.28-4.05.84-7.89.17-8.07-1.4-12.56-7.55-23.76-7.75-16.72-.29-19.99,12.64-34.31,8.36-9.89-2.95-10.8-9.71-18.04-8.86-9.48,1.09-14.8,17.03-23.79,21.49-8.15,4.05-16.88-2.28-24.21-8.82s-15.41-13.8-23.91-11.63c-7.55,1.92-9.93,6.32-14.74,3.45-5.52-3.29-5.87-12.52-12.45-14.81-1.78-.63-3.19-.42-6.03,0-1.15.17-2.16.4-3.07.69-4.08,1.26-6.13,3.46-10.03,4.8-1.93.67-11.53,3.93-16.29-3.33-3.14-4.79-3.22-12.92-1.51-18.4,2.88-9.23,11.94-14.54,21.85-10.82l.19.23c-1.05,1.74-2.09,3.6-3.11,5.59-3.18,6.18-5.41,12.16-7,17.28,9.56-9.81,18.09-13.91,23.63-15.82,2.86-.97,5.62-1.58,8.88-1.98v.11c7.32,1.89,18.44,6.15,30.19,16.53,8.42,7.45,14.58,15.76,18.79,22.42,8.71-5.43,17.5-10.84,26.37-16.23,7.79-4.74,15.54-9.41,23.26-14.01,13.58,3.93,29.48,9.75,46.89,18.54.46-5.11.76-13.29-.84-22.92,8.23,2.34,18.24,6.19,29.16,12.71,7.04,4.2,13.28,8.8,18.7,13.35Z"/>
    <path class="cls-2" d="m222.85,11.67l-.02.38c-2.93,4.29-6.3,9.91-9.51,17.02-3.62,8-5.97,15.53-7.53,21.64l.05.11h0c-.08.06-.15.12-.23.17-1.06-1.93-3.06-6.15-3.59-12.18-.1-1.13-.44-5.63.75-10.82.27-1.2.94-3.11,2.27-6.86,1.6-4.52,2.4-6.81,3.16-8.55,1.09-2.49,2.73-5.87,5.12-9.48,1.21,1.02,3.05,2.58,5.28,4.56,2.21,1.95,3.62,3.63,4.25,4.01Z"/>
    <path class="cls-2" d="m146.17,168.72c-2.83-.82-5.57-1.56-8.19-2.22-24.03-6.09-42.51-7.02-53.49-7.57-1.88-.1-10.48-.51-21.85,0-6.44.28-11.12.49-15.08.97-3.26.4-6.02,1.01-8.88,1.98-5.55,1.92-14.07,6.01-23.63,15.82,1.59-5.12,3.82-11.1,7-17.28,1.02-1.99,2.06-3.85,3.11-5.59,4.85-8.06,9.89-13.6,13.8-17.24.15.06.29.14.44.23,4.77,2.74,8.43,9.09,13.49,10.41,8.18,2.14,15.19-9.71,23.5-10.38,6.35-.51,11.94,5.53,17.98,8.42,10.86,5.18,20.73.81,30.7-2.15,15.27-4.56,17.74-9.99,26.48-7.91,8.88,2.11,8.36,8.22,16.58,10.82,7.04,2.23,12.24-.75,17.33-4.34h0c2.09,4.3,5.11,11.61,6.78,21.65,1.6,9.63,1.3,17.81.84,22.92-17.41-8.79-33.31-14.61-46.89-18.54Z"/>
    <path class="cls-2" d="m180.24,2.19c.7-.02,1.4-.04,2.11-.06-8.91,12.77-15.02,22-19.51,29.11-1.48,2.33-4.09,6.49-8.29,10.82-3.65,3.74-7.11,6.21-9.83,7.82l-.05-.15c1.69-6.3,4.11-13.8,7.62-21.74,2.93-6.67,5.99-12.16,8.76-16.58.09.12.19.23.28.35,6.31-3.19,12.6-6.37,18.91-9.57Z"/>
    <path class="cls-2" d="m154.04,2.7c2.34,2.91,4.68,5.81,7.01,8.71-2.77,4.42-5.83,9.91-8.76,16.58-3.51,7.94-5.93,15.44-7.62,21.74l.05.15c-.52.3-1.01.58-1.47.83-.47-4.97-.77-12.67.75-21.64,2.23-13.15,7.13-21.88,9.79-25.97l.24-.4Z"/>
    <path class="cls-2" d="m137.98,166.5c2.62.66,5.36,1.4,8.19,2.22-7.72,4.6-15.47,9.27-23.26,14.01-8.87,5.39-17.66,10.8-26.37,16.23-4.21-6.67-10.37-14.98-18.79-22.42-11.75-10.39-22.87-14.64-30.18-16.53v-.11c3.95-.49,8.63-.69,15.07-.97,11.37-.51,19.97-.1,21.85,0,10.98.55,29.47,1.48,53.49,7.57Z"/>
    <path class="cls-2" d="m106.13,19.95c5.85-4.89,11.69-9.79,17.53-14.68-2.7,10.37-5.83,18.32-8.29,23.81-1.48,3.3-3.51,7.78-6.78,12.99-4.15,6.6-8.27,11.14-11.3,14.07,2.95-12.04,5.91-24.09,8.86-36.12l-.02-.05Z"/>
    <path class="cls-2" d="m106.13,19.95l.02.05c-2.95,12.03-5.91,24.08-8.86,36.12-1.32-2.73-2.6-6.15-3.44-10.28-3.41-16.87,3.43-31.98,4.94-35.17l.16-.22c2.22,3.31,4.42,6.63,6.62,9.96.18-.15.37-.3.55-.47Z"/>
  </g>
  <g>
    <path class="cls-1" d="m317.12,141.84c12.97-1.72,26.09-.82,38.88,2.67-4.07-5.59-8.13-11.19-12.2-16.77-.05-.06-.1-.13-.14-.19"/>
    <path class="cls-1" d="m222.83,12.05c-2.93,4.29-6.3,9.91-9.51,17.02-3.62,8-5.97,15.53-7.53,21.64"/>
    <path class="cls-1" d="m161.22,11.14c-.05.09-.11.17-.17.27-2.77,4.42-5.83,9.91-8.76,16.58-3.51,7.94-5.93,15.44-7.62,21.74"/>
    <path class="cls-1" d="m106.15,20c-2.95,12.03-5.91,24.08-8.86,36.12"/>
    <path class="cls-1" d="m242.7,7.43c-4.11,3.67-12.18,11.22-18.08,19.48-4.01,5.58-6.78,9.74-6.78,9.74-2.5,3.73-3.48,5.36-5.27,7.57-2.59,3.18-5.03,5.29-6.74,6.6h0c-.08.06-.15.12-.23.17-1.06-1.93-3.06-6.15-3.59-12.18-.1-1.13-.44-5.63.75-10.82.27-1.2.94-3.11,2.27-6.86,1.6-4.52,2.4-6.81,3.16-8.55,1.09-2.49,2.73-5.87,5.12-9.48,1.21,1.02,3.05,2.58,5.28,4.56,2.21,1.95,3.62,3.63,4.25,4.01.11.08.2.1.26.09,6.49-1.71,12.98-3.42,19.48-5.12.06.01.11.02.17.03,8.51,1.33,20.7,4.31,34.6,11.58,13.02,6.82,29.37,15.68,42.94,37.87,0,0,12.52,20.46,14.14,43.44.13,1.74.19,3.5.17,5.26,0,1.31-.08,3.26-.75,5.41-3.02,9.62-14.33,11.06-24.11,11.9-19.05,1.63-28.51,1.17-35.41,1.08-19.26-.26-198.77,3.91-245.61,0-1.73-.15-6.05-.6-8.74-5.02-2.06-3.39-2.76-8.44-2.4-14.44.95-15.64,9.13-37.65,19.42-53.05,5.45-8.17,10.95-13.67,14.96-17.12,0,0,2.07-1.79,4.42-3.52,12.1-8.92,37.99-18.32,42.38-19.9.06.1.13.18.19.28,2.22,3.31,4.42,6.63,6.62,9.96.18-.15.37-.3.55-.47,5.85-4.89,11.69-9.79,17.53-14.68,4.95-.93,10.23-1.68,15.82-2.16,5.03-.44,9.82-.63,14.37-.63.06.08.13.15.19.23,2.34,2.91,4.68,5.81,7.01,8.71.09.12.19.23.28.35,6.31-3.19,12.6-6.37,18.91-9.57.7-.02,1.4-.04,2.11-.06,4.2-.11,8.5-.15,12.88-.11,5.99.05,11.82.26,17.47.6"/>
    <path class="cls-1" d="m153.8,3.1c-2.66,4.09-7.56,12.82-9.79,25.97-1.52,8.97-1.23,16.68-.75,21.64.46-.25.95-.53,1.47-.83,2.72-1.61,6.19-4.08,9.83-7.82,4.2-4.33,6.81-8.49,8.29-10.82,4.5-7.11,10.61-16.34,19.51-29.11l.08-.11"/>
    <path class="cls-1" d="m98.8,10.67c-1.51,3.19-8.35,18.3-4.94,35.17.84,4.13,2.12,7.55,3.44,10.28,3.03-2.93,7.15-7.47,11.3-14.07,3.27-5.21,5.3-9.68,6.78-12.99,2.46-5.49,5.58-13.44,8.29-23.81"/>
    <path class="cls-1" d="m17.43,103.74c-9.04,4.62-13.82,14.89-12.53,22.23,1.32,7.55,8.82,10.85,9.31,10.99,4.15,1.21,8.43.28,12.64-.38,4.05-.64,8.28-1,12.1,1.01.15.06.29.14.44.23,4.77,2.74,8.43,9.09,13.49,10.41,8.18,2.14,15.19-9.71,23.5-10.38,6.35-.51,11.94,5.53,17.98,8.42,10.86,5.18,20.73.81,30.7-2.15,15.27-4.56,17.74-9.99,26.48-7.91,8.88,2.11,8.36,8.22,16.58,10.82,7.04,2.23,12.24-.75,17.33-4.34,6.17-4.34,12.18-9.58,21.1-7.56,10.78,2.42,10.66,12.03,21.1,12.99,12.84,1.17,15.38-13.15,28.63-14.07,13.28-.93,13.53,13.21,30.89,15.15,9.91,1.09,25.11-1.82,30.89-14.07.84-1.81,1.38-3.57,3.01-5.41,5.15-5.81,13.73-3.87,18.42-2.81,1.48.34,2.81.74,4.32.84.89.09,1.84.05,2.92-.14,2.28-.4,4.85-.87,6.58-3.75,2.12-3.55,1.89-8.99.78-12.62-1.38-4.46-4.17-6.33-7.13-8.32-2.22-1.49-6.16-3.58-11.57-3.5"/>
    <path class="cls-1" d="m39.28,137.28c-.11.1-.22.19-.32.3-3.91,3.64-8.95,9.18-13.8,17.24-1.05,1.74-2.09,3.6-3.11,5.59-3.18,6.18-5.41,12.16-7,17.28,9.56-9.81,18.09-13.91,23.63-15.82,2.86-.97,5.62-1.58,8.88-1.98,3.96-.49,8.63-.69,15.08-.97,11.37-.51,19.97-.1,21.85,0,10.98.55,29.47,1.48,53.49,7.57,2.62.66,5.36,1.4,8.19,2.22,13.58,3.93,29.48,9.75,46.89,18.54.46-5.11.76-13.29-.84-22.92-1.67-10.04-4.69-17.36-6.78-21.64"/>
    <path class="cls-1" d="m192.22,164.33c9.68-3.77,22.48-7.49,37.67-8.66,5.33-.41,20.5-1.24,39.93,3.25,5.11,1.18,10.96,2.82,17.37,5.18,7.79,2.86,16.42,6.76,25.58,12.13-.51-4.73-.87-11.51,0-19.48.3-2.76.71-5.33,1.18-7.7.57-2.84,1.23-5.4,1.91-7.64.75-2.48,1.51-4.59,2.18-6.3"/>
    <path class="cls-1" d="m192.22,164.33c8.23,2.34,18.24,6.19,29.16,12.71,7.04,4.2,13.28,8.8,18.7,13.35,3.47,2.91,6.59,5.8,9.4,8.56,2.37-3.71,5.32-7.89,8.92-12.12,2.08-2.46,4.38-4.93,6.9-7.36,8.21-7.89,15.98-12.44,21.85-15.15"/>
    <path class="cls-1" d="m314.28,149.19c8.35-1.24,14.9.47,19.08,2.09,6.34,2.45,10.37,4.54,13,11.1,1.81,4.52,2.12,10.07.38,14.65-2.81,7.39-8.96,8.12-14.16,6.68-.06-.02-.13-.03-.19-.05-4.27-1.21-8.43-3.58-12.79-3.64-12.46-.16-18.4,14.92-31.55,19.09-6.47,2.05-16.06,1.19-29.52-12.04"/>
    <path class="cls-1" d="m47.57,160.01c7.31,1.89,18.43,6.15,30.18,16.53,8.42,7.45,14.58,15.76,18.79,22.42,8.71-5.43,17.5-10.84,26.37-16.23,7.79-4.74,15.54-9.41,23.26-14.01.03-.01.07-.03.1-.05"/>
    <path class="cls-1" d="m24.96,154.6c-9.91-3.72-18.97,1.59-21.85,10.82-1.71,5.48-1.63,13.6,1.51,18.4,4.76,7.26,14.36,4,16.29,3.33,3.9-1.34,5.94-3.55,10.03-4.8.9-.29,1.91-.52,3.07-.69,2.83-.42,4.25-.63,6.03,0,6.58,2.29,6.94,11.52,12.45,14.81,4.81,2.87,7.19-1.54,14.74-3.45,8.49-2.16,16.58,5.1,23.91,11.63s16.06,12.87,24.21,8.82c8.99-4.46,14.31-20.4,23.79-21.49,7.24-.84,8.14,5.91,18.04,8.86,14.32,4.27,17.59-8.66,34.31-8.36,11.2.19,15.69,6.35,23.76,7.75,3.83.67,6.25.11,7.89-.17,2.81-.49,8.92-3.47,16.58-8.66"/>
    <path class="cls-1" d="m30.99,182.73c1.75,7.16,5,17.52,11.3,27.05,11.57,17.49,26.46,21.64,48.97,25.97,31.85,6.11,47.77,9.17,77.6,9.74,29.45.55,51.37-1.61,64.52-3.28,49.12-6.24,63.72-16.68,71.85-23.77,12.94-11.32,21.71-24.87,27.12-34.63"/>
  </g>
</svg>